<mxfile host="app.diagrams.net" modified="2023-09-18T08:42:24.276Z" agent="Mozilla/5.0 (Windows NT 10.0; Win64; x64) AppleWebKit/537.36 (KHTML, like Gecko) Chrome/115.0.0.0 Safari/537.36 Edg/115.0.1901.183" etag="0aUmw2TPvGn6zoqu7L5P" version="21.7.5" type="device">
  <diagram id="QJjx0-fPxzvcmYibJWj1" name="Page-1">
    <mxGraphModel dx="2026" dy="891" grid="1" gridSize="10" guides="1" tooltips="1" connect="1" arrows="1" fold="1" page="1" pageScale="1" pageWidth="827" pageHeight="583" math="0" shadow="0">
      <root>
        <mxCell id="0" />
        <mxCell id="1" parent="0" />
        <mxCell id="W2sZAfdM7DxVgBCfhYmm-91" value="" style="rounded=0;whiteSpace=wrap;html=1;" parent="1" vertex="1">
          <mxGeometry x="426" y="204" width="20" height="182" as="geometry" />
        </mxCell>
        <mxCell id="W2sZAfdM7DxVgBCfhYmm-24" value="" style="verticalLabelPosition=bottom;verticalAlign=top;html=1;shape=mxgraph.basic.layered_rect;dx=10;outlineConnect=0;whiteSpace=wrap;direction=west;" parent="1" vertex="1">
          <mxGeometry x="-559" y="289" width="170" height="130" as="geometry" />
        </mxCell>
        <mxCell id="W2sZAfdM7DxVgBCfhYmm-19" value="" style="rounded=0;whiteSpace=wrap;html=1;" parent="1" vertex="1">
          <mxGeometry x="-236.25" y="339" width="14.5" height="15" as="geometry" />
        </mxCell>
        <mxCell id="W2sZAfdM7DxVgBCfhYmm-12" value="" style="rounded=0;whiteSpace=wrap;html=1;" parent="1" vertex="1">
          <mxGeometry x="-220" y="314" width="20" height="20" as="geometry" />
        </mxCell>
        <mxCell id="4f-DMQIj-ya-iA7LCkDa-31" value="&lt;b&gt;input&lt;/b&gt;" style="text;html=1;strokeColor=none;fillColor=none;align=center;verticalAlign=middle;whiteSpace=wrap;rounded=0;" parent="1" vertex="1">
          <mxGeometry x="-559" y="237" width="40" height="30" as="geometry" />
        </mxCell>
        <mxCell id="4f-DMQIj-ya-iA7LCkDa-50" value="rank 0" style="text;html=1;strokeColor=none;fillColor=none;align=left;verticalAlign=middle;whiteSpace=wrap;rounded=0;fontStyle=1" parent="1" vertex="1">
          <mxGeometry x="-431" y="153" width="56" height="23.88" as="geometry" />
        </mxCell>
        <mxCell id="4f-DMQIj-ya-iA7LCkDa-51" value="rank 1&amp;nbsp;" style="text;html=1;strokeColor=none;fillColor=none;align=left;verticalAlign=middle;whiteSpace=wrap;rounded=0;fontStyle=1" parent="1" vertex="1">
          <mxGeometry x="-431" y="183" width="56" height="23.88" as="geometry" />
        </mxCell>
        <mxCell id="4f-DMQIj-ya-iA7LCkDa-52" value="rank 2" style="text;html=1;strokeColor=none;fillColor=none;align=left;verticalAlign=middle;whiteSpace=wrap;rounded=0;fontStyle=1" parent="1" vertex="1">
          <mxGeometry x="-431" y="214.06" width="56" height="23.88" as="geometry" />
        </mxCell>
        <mxCell id="4f-DMQIj-ya-iA7LCkDa-53" value="rank 3" style="text;html=1;strokeColor=none;fillColor=none;align=left;verticalAlign=middle;whiteSpace=wrap;rounded=0;fontStyle=1" parent="1" vertex="1">
          <mxGeometry x="-432" y="242.06" width="57" height="23.88" as="geometry" />
        </mxCell>
        <mxCell id="W2sZAfdM7DxVgBCfhYmm-6" value="" style="verticalLabelPosition=bottom;verticalAlign=top;html=1;shape=mxgraph.basic.layered_rect;dx=10;outlineConnect=0;whiteSpace=wrap;direction=west;fillColor=#f8cecc;strokeColor=#b85450;" parent="1" vertex="1">
          <mxGeometry x="-359" y="232" width="170" height="130" as="geometry" />
        </mxCell>
        <mxCell id="W2sZAfdM7DxVgBCfhYmm-13" value="" style="rounded=0;whiteSpace=wrap;html=1;fillColor=#dae8fc;strokeColor=#6c8ebf;" parent="1" vertex="1">
          <mxGeometry x="-489" y="339" width="40" height="40" as="geometry" />
        </mxCell>
        <mxCell id="W2sZAfdM7DxVgBCfhYmm-23" value="" style="endArrow=none;html=1;rounded=0;exitX=1;exitY=1;exitDx=0;exitDy=0;fillColor=#dae8fc;strokeColor=#6c8ebf;" parent="1" source="W2sZAfdM7DxVgBCfhYmm-13" target="W2sZAfdM7DxVgBCfhYmm-33" edge="1">
          <mxGeometry width="50" height="50" relative="1" as="geometry">
            <mxPoint x="-234.25" y="467" as="sourcePoint" />
            <mxPoint x="-309" y="474" as="targetPoint" />
          </mxGeometry>
        </mxCell>
        <mxCell id="W2sZAfdM7DxVgBCfhYmm-25" value="&lt;b&gt;kernel&lt;/b&gt;" style="text;html=1;strokeColor=none;fillColor=none;align=center;verticalAlign=middle;whiteSpace=wrap;rounded=0;" parent="1" vertex="1">
          <mxGeometry x="-489" y="312" width="40" height="30" as="geometry" />
        </mxCell>
        <mxCell id="W2sZAfdM7DxVgBCfhYmm-27" value="" style="verticalLabelPosition=bottom;verticalAlign=top;html=1;shape=mxgraph.basic.layered_rect;dx=10;outlineConnect=0;whiteSpace=wrap;direction=west;fillColor=#f8cecc;strokeColor=#b85450;" parent="1" vertex="1">
          <mxGeometry x="-349" y="242" width="170" height="130" as="geometry" />
        </mxCell>
        <mxCell id="W2sZAfdM7DxVgBCfhYmm-28" value="" style="verticalLabelPosition=bottom;verticalAlign=top;html=1;shape=mxgraph.basic.layered_rect;dx=10;outlineConnect=0;whiteSpace=wrap;direction=west;fillColor=#dae8fc;strokeColor=#6c8ebf;" parent="1" vertex="1">
          <mxGeometry x="-339" y="252" width="170" height="130" as="geometry" />
        </mxCell>
        <mxCell id="W2sZAfdM7DxVgBCfhYmm-29" value="" style="verticalLabelPosition=bottom;verticalAlign=top;html=1;shape=mxgraph.basic.layered_rect;dx=10;outlineConnect=0;whiteSpace=wrap;direction=west;fillColor=#dae8fc;strokeColor=#6c8ebf;" parent="1" vertex="1">
          <mxGeometry x="-329" y="262" width="170" height="130" as="geometry" />
        </mxCell>
        <mxCell id="W2sZAfdM7DxVgBCfhYmm-30" value="" style="verticalLabelPosition=bottom;verticalAlign=top;html=1;shape=mxgraph.basic.layered_rect;dx=10;outlineConnect=0;whiteSpace=wrap;direction=west;fillColor=#ffe6cc;strokeColor=#d79b00;" parent="1" vertex="1">
          <mxGeometry x="-319" y="272" width="170" height="130" as="geometry" />
        </mxCell>
        <mxCell id="W2sZAfdM7DxVgBCfhYmm-31" value="" style="verticalLabelPosition=bottom;verticalAlign=top;html=1;shape=mxgraph.basic.layered_rect;dx=10;outlineConnect=0;whiteSpace=wrap;direction=west;fillColor=#ffe6cc;strokeColor=#d79b00;" parent="1" vertex="1">
          <mxGeometry x="-309" y="282" width="170" height="130" as="geometry" />
        </mxCell>
        <mxCell id="W2sZAfdM7DxVgBCfhYmm-32" value="" style="verticalLabelPosition=bottom;verticalAlign=top;html=1;shape=mxgraph.basic.layered_rect;dx=10;outlineConnect=0;whiteSpace=wrap;direction=west;fillColor=#d5e8d4;strokeColor=#82b366;" parent="1" vertex="1">
          <mxGeometry x="-299" y="292" width="170" height="130" as="geometry" />
        </mxCell>
        <mxCell id="W2sZAfdM7DxVgBCfhYmm-33" value="" style="verticalLabelPosition=bottom;verticalAlign=top;html=1;shape=mxgraph.basic.layered_rect;dx=10;outlineConnect=0;whiteSpace=wrap;direction=west;fillColor=#d5e8d4;strokeColor=#82b366;" parent="1" vertex="1">
          <mxGeometry x="-289" y="302" width="170" height="130" as="geometry" />
        </mxCell>
        <mxCell id="W2sZAfdM7DxVgBCfhYmm-36" value="&lt;b&gt;output conv&lt;/b&gt;" style="text;html=1;strokeColor=none;fillColor=none;align=center;verticalAlign=middle;whiteSpace=wrap;rounded=0;" parent="1" vertex="1">
          <mxGeometry x="-372" y="195" width="90" height="30" as="geometry" />
        </mxCell>
        <mxCell id="W2sZAfdM7DxVgBCfhYmm-38" value="" style="rounded=0;whiteSpace=wrap;html=1;" parent="1" vertex="1">
          <mxGeometry x="43.75" y="339" width="14.5" height="15" as="geometry" />
        </mxCell>
        <mxCell id="W2sZAfdM7DxVgBCfhYmm-39" value="" style="rounded=0;whiteSpace=wrap;html=1;" parent="1" vertex="1">
          <mxGeometry x="60" y="314" width="20" height="20" as="geometry" />
        </mxCell>
        <mxCell id="W2sZAfdM7DxVgBCfhYmm-40" value="" style="verticalLabelPosition=bottom;verticalAlign=top;html=1;shape=mxgraph.basic.layered_rect;dx=10;outlineConnect=0;whiteSpace=wrap;direction=west;fillColor=#f8cecc;strokeColor=#b85450;" parent="1" vertex="1">
          <mxGeometry x="-79" y="232" width="170" height="130" as="geometry" />
        </mxCell>
        <mxCell id="W2sZAfdM7DxVgBCfhYmm-41" value="" style="verticalLabelPosition=bottom;verticalAlign=top;html=1;shape=mxgraph.basic.layered_rect;dx=10;outlineConnect=0;whiteSpace=wrap;direction=west;fillColor=#f8cecc;strokeColor=#b85450;" parent="1" vertex="1">
          <mxGeometry x="-69" y="242" width="170" height="130" as="geometry" />
        </mxCell>
        <mxCell id="W2sZAfdM7DxVgBCfhYmm-42" value="" style="verticalLabelPosition=bottom;verticalAlign=top;html=1;shape=mxgraph.basic.layered_rect;dx=10;outlineConnect=0;whiteSpace=wrap;direction=west;fillColor=#dae8fc;strokeColor=#6c8ebf;" parent="1" vertex="1">
          <mxGeometry x="-59" y="252" width="170" height="130" as="geometry" />
        </mxCell>
        <mxCell id="W2sZAfdM7DxVgBCfhYmm-43" value="" style="verticalLabelPosition=bottom;verticalAlign=top;html=1;shape=mxgraph.basic.layered_rect;dx=10;outlineConnect=0;whiteSpace=wrap;direction=west;fillColor=#dae8fc;strokeColor=#6c8ebf;" parent="1" vertex="1">
          <mxGeometry x="-49" y="262" width="170" height="130" as="geometry" />
        </mxCell>
        <mxCell id="W2sZAfdM7DxVgBCfhYmm-44" value="" style="verticalLabelPosition=bottom;verticalAlign=top;html=1;shape=mxgraph.basic.layered_rect;dx=10;outlineConnect=0;whiteSpace=wrap;direction=west;fillColor=#ffe6cc;strokeColor=#d79b00;" parent="1" vertex="1">
          <mxGeometry x="-39" y="272" width="170" height="130" as="geometry" />
        </mxCell>
        <mxCell id="W2sZAfdM7DxVgBCfhYmm-45" value="" style="verticalLabelPosition=bottom;verticalAlign=top;html=1;shape=mxgraph.basic.layered_rect;dx=10;outlineConnect=0;whiteSpace=wrap;direction=west;fillColor=#ffe6cc;strokeColor=#d79b00;" parent="1" vertex="1">
          <mxGeometry x="-29" y="282" width="170" height="130" as="geometry" />
        </mxCell>
        <mxCell id="W2sZAfdM7DxVgBCfhYmm-46" value="" style="verticalLabelPosition=bottom;verticalAlign=top;html=1;shape=mxgraph.basic.layered_rect;dx=10;outlineConnect=0;whiteSpace=wrap;direction=west;fillColor=#d5e8d4;strokeColor=#82b366;" parent="1" vertex="1">
          <mxGeometry x="-19" y="292" width="170" height="130" as="geometry" />
        </mxCell>
        <mxCell id="W2sZAfdM7DxVgBCfhYmm-47" value="" style="verticalLabelPosition=bottom;verticalAlign=top;html=1;shape=mxgraph.basic.layered_rect;dx=10;outlineConnect=0;whiteSpace=wrap;direction=west;fillColor=#d5e8d4;strokeColor=#82b366;" parent="1" vertex="1">
          <mxGeometry x="-9" y="302" width="170" height="130" as="geometry" />
        </mxCell>
        <mxCell id="W2sZAfdM7DxVgBCfhYmm-52" value="" style="edgeStyle=elbowEdgeStyle;elbow=horizontal;endArrow=classic;html=1;curved=0;rounded=0;endSize=8;startSize=8;fillColor=#f8cecc;strokeColor=#b85450;" parent="1" source="W2sZAfdM7DxVgBCfhYmm-6" target="W2sZAfdM7DxVgBCfhYmm-40" edge="1">
          <mxGeometry width="50" height="50" relative="1" as="geometry">
            <mxPoint x="-59" y="282" as="sourcePoint" />
            <mxPoint x="-9" y="232" as="targetPoint" />
            <Array as="points">
              <mxPoint x="-119" y="172" />
            </Array>
          </mxGeometry>
        </mxCell>
        <mxCell id="W2sZAfdM7DxVgBCfhYmm-53" value="" style="edgeStyle=elbowEdgeStyle;elbow=horizontal;endArrow=classic;html=1;curved=0;rounded=0;endSize=8;startSize=8;fillColor=#dae8fc;strokeColor=#6c8ebf;" parent="1" source="W2sZAfdM7DxVgBCfhYmm-28" target="W2sZAfdM7DxVgBCfhYmm-42" edge="1">
          <mxGeometry width="50" height="50" relative="1" as="geometry">
            <mxPoint x="-264" y="242" as="sourcePoint" />
            <mxPoint x="16" y="242" as="targetPoint" />
            <Array as="points">
              <mxPoint x="-109" y="182" />
            </Array>
          </mxGeometry>
        </mxCell>
        <mxCell id="W2sZAfdM7DxVgBCfhYmm-54" value="" style="edgeStyle=elbowEdgeStyle;elbow=horizontal;endArrow=classic;html=1;curved=0;rounded=0;endSize=8;startSize=8;fillColor=#ffe6cc;strokeColor=#d79b00;" parent="1" source="W2sZAfdM7DxVgBCfhYmm-30" target="W2sZAfdM7DxVgBCfhYmm-44" edge="1">
          <mxGeometry width="50" height="50" relative="1" as="geometry">
            <mxPoint x="-244" y="262" as="sourcePoint" />
            <mxPoint x="36" y="262" as="targetPoint" />
            <Array as="points">
              <mxPoint x="-99" y="192" />
            </Array>
          </mxGeometry>
        </mxCell>
        <mxCell id="W2sZAfdM7DxVgBCfhYmm-55" value="" style="edgeStyle=elbowEdgeStyle;elbow=horizontal;endArrow=classic;html=1;curved=0;rounded=0;endSize=8;startSize=8;fillColor=#d5e8d4;strokeColor=#82b366;" parent="1" source="W2sZAfdM7DxVgBCfhYmm-32" target="W2sZAfdM7DxVgBCfhYmm-46" edge="1">
          <mxGeometry width="50" height="50" relative="1" as="geometry">
            <mxPoint x="-224" y="282" as="sourcePoint" />
            <mxPoint x="56" y="282" as="targetPoint" />
            <Array as="points">
              <mxPoint x="-89" y="202" />
            </Array>
          </mxGeometry>
        </mxCell>
        <mxCell id="W2sZAfdM7DxVgBCfhYmm-56" value="&lt;b&gt;BN/ReLU&lt;/b&gt;" style="text;html=1;strokeColor=none;fillColor=none;align=center;verticalAlign=middle;whiteSpace=wrap;rounded=0;" parent="1" vertex="1">
          <mxGeometry x="-179" y="142.06" width="90" height="30" as="geometry" />
        </mxCell>
        <mxCell id="W2sZAfdM7DxVgBCfhYmm-57" value="" style="rounded=0;whiteSpace=wrap;html=1;" parent="1" vertex="1">
          <mxGeometry x="313.75" y="344" width="14.5" height="15" as="geometry" />
        </mxCell>
        <mxCell id="W2sZAfdM7DxVgBCfhYmm-59" value="" style="verticalLabelPosition=bottom;verticalAlign=top;html=1;shape=mxgraph.basic.layered_rect;dx=10;outlineConnect=0;whiteSpace=wrap;direction=west;fillColor=#f8cecc;strokeColor=#b85450;" parent="1" vertex="1">
          <mxGeometry x="191" y="237" width="85" height="65" as="geometry" />
        </mxCell>
        <mxCell id="W2sZAfdM7DxVgBCfhYmm-60" value="" style="verticalLabelPosition=bottom;verticalAlign=top;html=1;shape=mxgraph.basic.layered_rect;dx=10;outlineConnect=0;whiteSpace=wrap;direction=west;fillColor=#f8cecc;strokeColor=#b85450;" parent="1" vertex="1">
          <mxGeometry x="201" y="247" width="85" height="65" as="geometry" />
        </mxCell>
        <mxCell id="W2sZAfdM7DxVgBCfhYmm-61" value="" style="verticalLabelPosition=bottom;verticalAlign=top;html=1;shape=mxgraph.basic.layered_rect;dx=10;outlineConnect=0;whiteSpace=wrap;direction=west;fillColor=#dae8fc;strokeColor=#6c8ebf;" parent="1" vertex="1">
          <mxGeometry x="211" y="257" width="85" height="65" as="geometry" />
        </mxCell>
        <mxCell id="W2sZAfdM7DxVgBCfhYmm-62" value="" style="verticalLabelPosition=bottom;verticalAlign=top;html=1;shape=mxgraph.basic.layered_rect;dx=10;outlineConnect=0;whiteSpace=wrap;direction=west;fillColor=#dae8fc;strokeColor=#6c8ebf;" parent="1" vertex="1">
          <mxGeometry x="221" y="267" width="85" height="65" as="geometry" />
        </mxCell>
        <mxCell id="W2sZAfdM7DxVgBCfhYmm-63" value="" style="verticalLabelPosition=bottom;verticalAlign=top;html=1;shape=mxgraph.basic.layered_rect;dx=10;outlineConnect=0;whiteSpace=wrap;direction=west;fillColor=#ffe6cc;strokeColor=#d79b00;" parent="1" vertex="1">
          <mxGeometry x="231" y="277" width="85" height="65" as="geometry" />
        </mxCell>
        <mxCell id="W2sZAfdM7DxVgBCfhYmm-64" value="" style="verticalLabelPosition=bottom;verticalAlign=top;html=1;shape=mxgraph.basic.layered_rect;dx=10;outlineConnect=0;whiteSpace=wrap;direction=west;fillColor=#ffe6cc;strokeColor=#d79b00;" parent="1" vertex="1">
          <mxGeometry x="241" y="287" width="85" height="65" as="geometry" />
        </mxCell>
        <mxCell id="W2sZAfdM7DxVgBCfhYmm-65" value="" style="verticalLabelPosition=bottom;verticalAlign=top;html=1;shape=mxgraph.basic.layered_rect;dx=10;outlineConnect=0;whiteSpace=wrap;direction=west;fillColor=#d5e8d4;strokeColor=#82b366;" parent="1" vertex="1">
          <mxGeometry x="251" y="297" width="85" height="65" as="geometry" />
        </mxCell>
        <mxCell id="W2sZAfdM7DxVgBCfhYmm-66" value="" style="verticalLabelPosition=bottom;verticalAlign=top;html=1;shape=mxgraph.basic.layered_rect;dx=10;outlineConnect=0;whiteSpace=wrap;direction=west;fillColor=#d5e8d4;strokeColor=#82b366;" parent="1" vertex="1">
          <mxGeometry x="261" y="307" width="85" height="65" as="geometry" />
        </mxCell>
        <mxCell id="W2sZAfdM7DxVgBCfhYmm-67" value="&lt;b&gt;pooling&lt;/b&gt;" style="text;html=1;strokeColor=none;fillColor=none;align=center;verticalAlign=middle;whiteSpace=wrap;rounded=0;" parent="1" vertex="1">
          <mxGeometry x="101" y="184.94" width="90" height="30" as="geometry" />
        </mxCell>
        <mxCell id="W2sZAfdM7DxVgBCfhYmm-68" value="" style="shape=flexArrow;endArrow=classic;html=1;rounded=0;" parent="1" edge="1">
          <mxGeometry width="50" height="50" relative="1" as="geometry">
            <mxPoint x="121" y="232.00000000000003" as="sourcePoint" />
            <mxPoint x="171" y="232.00000000000003" as="targetPoint" />
          </mxGeometry>
        </mxCell>
        <mxCell id="W2sZAfdM7DxVgBCfhYmm-69" value="" style="shape=flexArrow;endArrow=classic;html=1;rounded=0;" parent="1" edge="1">
          <mxGeometry width="50" height="50" relative="1" as="geometry">
            <mxPoint x="313.75" y="236.17000000000002" as="sourcePoint" />
            <mxPoint x="363.75" y="236.17000000000002" as="targetPoint" />
          </mxGeometry>
        </mxCell>
        <mxCell id="W2sZAfdM7DxVgBCfhYmm-70" value="&lt;b&gt;flattening&lt;/b&gt;" style="text;html=1;strokeColor=none;fillColor=none;align=center;verticalAlign=middle;whiteSpace=wrap;rounded=0;" parent="1" vertex="1">
          <mxGeometry x="286" y="184.94" width="90" height="30" as="geometry" />
        </mxCell>
        <mxCell id="W2sZAfdM7DxVgBCfhYmm-71" value="" style="rounded=0;whiteSpace=wrap;html=1;fillColor=#ffe6cc;strokeColor=#d79b00;" parent="1" vertex="1">
          <mxGeometry x="383" y="312" width="6" height="70" as="geometry" />
        </mxCell>
        <mxCell id="W2sZAfdM7DxVgBCfhYmm-72" value="" style="rounded=0;whiteSpace=wrap;html=1;fillColor=#dae8fc;strokeColor=#6c8ebf;" parent="1" vertex="1">
          <mxGeometry x="383" y="243" width="6" height="70" as="geometry" />
        </mxCell>
        <mxCell id="W2sZAfdM7DxVgBCfhYmm-73" value="" style="rounded=0;whiteSpace=wrap;html=1;fillColor=#f8cecc;strokeColor=#b85450;" parent="1" vertex="1">
          <mxGeometry x="383" y="173" width="6" height="70" as="geometry" />
        </mxCell>
        <mxCell id="W2sZAfdM7DxVgBCfhYmm-74" value="" style="rounded=0;whiteSpace=wrap;html=1;fillColor=#d5e8d4;strokeColor=#82b366;" parent="1" vertex="1">
          <mxGeometry x="383" y="382" width="6" height="70" as="geometry" />
        </mxCell>
        <mxCell id="W2sZAfdM7DxVgBCfhYmm-75" value="" style="rounded=0;whiteSpace=wrap;html=1;fillColor=#f8cecc;strokeColor=#b85450;" parent="1" vertex="1">
          <mxGeometry x="-471" y="154.88" width="30" height="20" as="geometry" />
        </mxCell>
        <mxCell id="W2sZAfdM7DxVgBCfhYmm-76" value="" style="rounded=0;whiteSpace=wrap;html=1;fillColor=#dae8fc;strokeColor=#6c8ebf;" parent="1" vertex="1">
          <mxGeometry x="-471" y="184.88" width="30" height="20" as="geometry" />
        </mxCell>
        <mxCell id="W2sZAfdM7DxVgBCfhYmm-77" value="" style="rounded=0;whiteSpace=wrap;html=1;fillColor=#ffe6cc;strokeColor=#d79b00;" parent="1" vertex="1">
          <mxGeometry x="-471" y="214" width="30" height="20" as="geometry" />
        </mxCell>
        <mxCell id="W2sZAfdM7DxVgBCfhYmm-78" value="" style="rounded=0;whiteSpace=wrap;html=1;fillColor=#d5e8d4;strokeColor=#82b366;" parent="1" vertex="1">
          <mxGeometry x="-471" y="243.94" width="30" height="20" as="geometry" />
        </mxCell>
        <mxCell id="W2sZAfdM7DxVgBCfhYmm-79" value="" style="ellipse;whiteSpace=wrap;html=1;aspect=fixed;fillColor=#f8cecc;strokeColor=#b85450;" parent="1" vertex="1">
          <mxGeometry x="431" y="208" width="10" height="10" as="geometry" />
        </mxCell>
        <mxCell id="W2sZAfdM7DxVgBCfhYmm-80" value="" style="ellipse;whiteSpace=wrap;html=1;aspect=fixed;fillColor=#f8cecc;strokeColor=#b85450;" parent="1" vertex="1">
          <mxGeometry x="431" y="223" width="10" height="10" as="geometry" />
        </mxCell>
        <mxCell id="W2sZAfdM7DxVgBCfhYmm-81" value="" style="ellipse;whiteSpace=wrap;html=1;aspect=fixed;fillColor=#f8cecc;strokeColor=#b85450;" parent="1" vertex="1">
          <mxGeometry x="431" y="238" width="10" height="10" as="geometry" />
        </mxCell>
        <mxCell id="W2sZAfdM7DxVgBCfhYmm-82" value="" style="ellipse;whiteSpace=wrap;html=1;aspect=fixed;fillColor=#dae8fc;strokeColor=#6c8ebf;" parent="1" vertex="1">
          <mxGeometry x="431" y="253" width="10" height="10" as="geometry" />
        </mxCell>
        <mxCell id="W2sZAfdM7DxVgBCfhYmm-83" value="" style="ellipse;whiteSpace=wrap;html=1;aspect=fixed;fillColor=#dae8fc;strokeColor=#6c8ebf;" parent="1" vertex="1">
          <mxGeometry x="431" y="268" width="10" height="10" as="geometry" />
        </mxCell>
        <mxCell id="W2sZAfdM7DxVgBCfhYmm-84" value="" style="ellipse;whiteSpace=wrap;html=1;aspect=fixed;fillColor=#dae8fc;strokeColor=#6c8ebf;" parent="1" vertex="1">
          <mxGeometry x="431" y="283" width="10" height="10" as="geometry" />
        </mxCell>
        <mxCell id="W2sZAfdM7DxVgBCfhYmm-85" value="" style="ellipse;whiteSpace=wrap;html=1;aspect=fixed;fillColor=#ffe6cc;strokeColor=#d79b00;" parent="1" vertex="1">
          <mxGeometry x="431" y="298" width="10" height="10" as="geometry" />
        </mxCell>
        <mxCell id="W2sZAfdM7DxVgBCfhYmm-86" value="" style="ellipse;whiteSpace=wrap;html=1;aspect=fixed;fillColor=#ffe6cc;strokeColor=#d79b00;" parent="1" vertex="1">
          <mxGeometry x="431" y="313" width="10" height="10" as="geometry" />
        </mxCell>
        <mxCell id="W2sZAfdM7DxVgBCfhYmm-87" value="" style="ellipse;whiteSpace=wrap;html=1;aspect=fixed;fillColor=#ffe6cc;strokeColor=#d79b00;" parent="1" vertex="1">
          <mxGeometry x="431" y="328" width="10" height="10" as="geometry" />
        </mxCell>
        <mxCell id="W2sZAfdM7DxVgBCfhYmm-88" value="" style="ellipse;whiteSpace=wrap;html=1;aspect=fixed;fillColor=#d5e8d4;strokeColor=#82b366;" parent="1" vertex="1">
          <mxGeometry x="431" y="343" width="10" height="10" as="geometry" />
        </mxCell>
        <mxCell id="W2sZAfdM7DxVgBCfhYmm-89" value="" style="ellipse;whiteSpace=wrap;html=1;aspect=fixed;fillColor=#d5e8d4;strokeColor=#82b366;" parent="1" vertex="1">
          <mxGeometry x="431" y="358" width="10" height="10" as="geometry" />
        </mxCell>
        <mxCell id="W2sZAfdM7DxVgBCfhYmm-90" value="" style="ellipse;whiteSpace=wrap;html=1;aspect=fixed;fillColor=#d5e8d4;strokeColor=#82b366;" parent="1" vertex="1">
          <mxGeometry x="431" y="373" width="10" height="10" as="geometry" />
        </mxCell>
        <mxCell id="W2sZAfdM7DxVgBCfhYmm-92" value="&lt;b&gt;fc&lt;/b&gt;" style="text;html=1;strokeColor=none;fillColor=none;align=center;verticalAlign=middle;whiteSpace=wrap;rounded=0;" parent="1" vertex="1">
          <mxGeometry x="416" y="162.94" width="40" height="30" as="geometry" />
        </mxCell>
        <mxCell id="W2sZAfdM7DxVgBCfhYmm-94" value="" style="rounded=0;whiteSpace=wrap;html=1;" parent="1" vertex="1">
          <mxGeometry x="480" y="232" width="20" height="130" as="geometry" />
        </mxCell>
        <mxCell id="W2sZAfdM7DxVgBCfhYmm-97" value="" style="ellipse;whiteSpace=wrap;html=1;aspect=fixed;" parent="1" vertex="1">
          <mxGeometry x="485" y="238" width="10" height="10" as="geometry" />
        </mxCell>
        <mxCell id="W2sZAfdM7DxVgBCfhYmm-98" value="" style="ellipse;whiteSpace=wrap;html=1;aspect=fixed;" parent="1" vertex="1">
          <mxGeometry x="485" y="253" width="10" height="10" as="geometry" />
        </mxCell>
        <mxCell id="W2sZAfdM7DxVgBCfhYmm-99" value="" style="ellipse;whiteSpace=wrap;html=1;aspect=fixed;" parent="1" vertex="1">
          <mxGeometry x="485" y="268" width="10" height="10" as="geometry" />
        </mxCell>
        <mxCell id="W2sZAfdM7DxVgBCfhYmm-100" value="" style="ellipse;whiteSpace=wrap;html=1;aspect=fixed;" parent="1" vertex="1">
          <mxGeometry x="485" y="283" width="10" height="10" as="geometry" />
        </mxCell>
        <mxCell id="W2sZAfdM7DxVgBCfhYmm-101" value="" style="ellipse;whiteSpace=wrap;html=1;aspect=fixed;" parent="1" vertex="1">
          <mxGeometry x="485" y="298" width="10" height="10" as="geometry" />
        </mxCell>
        <mxCell id="W2sZAfdM7DxVgBCfhYmm-102" value="" style="ellipse;whiteSpace=wrap;html=1;aspect=fixed;" parent="1" vertex="1">
          <mxGeometry x="485" y="313" width="10" height="10" as="geometry" />
        </mxCell>
        <mxCell id="W2sZAfdM7DxVgBCfhYmm-103" value="" style="ellipse;whiteSpace=wrap;html=1;aspect=fixed;" parent="1" vertex="1">
          <mxGeometry x="485" y="328" width="10" height="10" as="geometry" />
        </mxCell>
        <mxCell id="W2sZAfdM7DxVgBCfhYmm-104" value="" style="ellipse;whiteSpace=wrap;html=1;aspect=fixed;" parent="1" vertex="1">
          <mxGeometry x="485" y="343" width="10" height="10" as="geometry" />
        </mxCell>
        <mxCell id="W2sZAfdM7DxVgBCfhYmm-107" value="&lt;b&gt;output&lt;/b&gt;" style="text;html=1;strokeColor=none;fillColor=none;align=center;verticalAlign=middle;whiteSpace=wrap;rounded=0;" parent="1" vertex="1">
          <mxGeometry x="465" y="173.94" width="40" height="30" as="geometry" />
        </mxCell>
      </root>
    </mxGraphModel>
  </diagram>
</mxfile>
